<?xml version="1.0" encoding="UTF-8"?>
<svg width="1000" height="62" viewBox="0 0 1000 62" preserveAspectRatio="none" fill="none" xmlns="http://www.w3.org/2000/svg">
<path d="M1000 61V1C991 1 982 4 975 11C962 25 939 25 925 11C911 -3 889 -3 875 11C862 25 839 25 825 11C811 -3 789 -3 775 11C762 25 739 25 725 11C711 -3 689 -3 675 11C662 25 639 25 625 11C611 -3 589 -3 575 11C562 25 539 25 525 11C511 -3 489 -3 475 11C462 25 439 25 425 11C411 -3 389 -3 375 11C362 25 339 25 325 11C311 -3 289 -3 275 11C262 25 239 25 225 11C211 -3 189 -3 175 11C162 25 139 25 125 11C111 -3 88 -2 75 11C61 25 38 25 25 11C18 4 9 1 0 1V61H1000Z" fill="currentColor"/>
</svg>
