<svg width="152" height="45" viewBox="0 0 152 45" fill="none" xmlns="http://www.w3.org/2000/svg">
<path d="M64.8196 18.8147C64.9763 18.8147 65.1568 18.8249 65.3612 18.8454C65.5723 18.859 65.7426 18.8794 65.8721 18.9067L65.637 21.829C65.5349 21.7949 65.3884 21.7711 65.1977 21.7574C65.0138 21.737 64.8537 21.7268 64.7174 21.7268C64.3156 21.7268 63.9239 21.7779 63.5424 21.88C63.1678 21.9822 62.8306 22.1491 62.5309 22.3807C62.2311 22.6055 61.9927 22.9052 61.8156 23.2799C61.6453 23.6477 61.5602 24.1007 61.5602 24.6388V30.4527H58.4438V19.0293H60.8041L61.2639 20.9502H61.4171C61.6419 20.562 61.9212 20.2077 62.255 19.8876C62.5956 19.5606 62.9804 19.3018 63.4096 19.111C63.8455 18.9135 64.3156 18.8147 64.8196 18.8147Z" fill="#222222"/>
<path d="M72.6566 18.8147C73.7125 18.8147 74.6218 19.0191 75.3848 19.4278C76.1477 19.8297 76.7369 20.4155 77.1524 21.1852C77.568 21.955 77.7757 22.895 77.7757 24.0053V25.5176H70.4087C70.4428 26.3963 70.705 27.0877 71.1955 27.5918C71.6928 28.089 72.3808 28.3377 73.2595 28.3377C73.9883 28.3377 74.6559 28.2627 75.2622 28.1129C75.8684 27.963 76.4917 27.7382 77.132 27.4385V29.8499C76.5666 30.1292 75.974 30.3335 75.3541 30.4629C74.741 30.5924 73.9952 30.6571 73.1164 30.6571C71.972 30.6571 70.9571 30.4459 70.0715 30.0236C69.1928 29.6013 68.5014 28.9575 67.9973 28.0924C67.5001 27.2273 67.2514 26.1374 67.2514 24.8228C67.2514 23.4876 67.4762 22.3773 67.9258 21.4918C68.3822 20.5994 69.0157 19.9319 69.8263 19.4891C70.6369 19.0395 71.5804 18.8147 72.6566 18.8147ZM72.6771 21.032C72.0708 21.032 71.5667 21.2261 71.1648 21.6144C70.7698 22.0027 70.5416 22.6123 70.4803 23.4434H74.8534C74.8466 22.9802 74.7615 22.568 74.598 22.207C74.4413 21.846 74.2029 21.5599 73.8828 21.3487C73.5694 21.1376 73.1675 21.032 72.6771 21.032Z" fill="#222222"/>
<path d="M83.4261 19.0293V30.4527H80.3097V19.0293H83.4261ZM81.873 14.5539C82.3362 14.5539 82.7347 14.6629 83.0685 14.8809C83.4023 15.0921 83.5692 15.4906 83.5692 16.0764C83.5692 16.6554 83.4023 17.0573 83.0685 17.2821C82.7347 17.5 82.3362 17.609 81.873 17.609C81.403 17.609 81.0011 17.5 80.6673 17.2821C80.3404 17.0573 80.1769 16.6554 80.1769 16.0764C80.1769 15.4906 80.3404 15.0921 80.6673 14.8809C81.0011 14.6629 81.403 14.5539 81.873 14.5539Z" fill="#222222"/>
<path d="M93.1943 18.8147C94.4136 18.8147 95.3945 19.1485 96.137 19.8161C96.8795 20.4768 97.2507 21.5395 97.2507 23.004V30.4527H94.1343V23.7805C94.1343 22.9631 93.9845 22.3467 93.6847 21.9311C93.3918 21.5156 92.9286 21.3079 92.2951 21.3079C91.3415 21.3079 90.6909 21.6314 90.3435 22.2785C89.9961 22.9257 89.8224 23.8589 89.8224 25.0782V30.4527H86.706V19.0293H89.0867L89.5057 20.4904H89.6794C89.9246 20.0954 90.2277 19.7752 90.5888 19.53C90.9566 19.2847 91.3619 19.1042 91.8047 18.9884C92.2542 18.8726 92.7175 18.8147 93.1943 18.8147Z" fill="#222222"/>
<path d="M106.774 21.3692H104.076V30.4527H100.96V21.3692H99.2432V19.8672L100.96 19.0293V18.1914C100.96 17.2174 101.123 16.4612 101.45 15.9231C101.784 15.3782 102.251 14.9967 102.85 14.7787C103.456 14.5539 104.172 14.4415 104.996 14.4415C105.602 14.4415 106.154 14.4926 106.651 14.5948C107.148 14.6902 107.554 14.7992 107.867 14.9218L107.07 17.2105C106.832 17.1356 106.573 17.0675 106.293 17.0062C106.014 16.9449 105.694 16.9142 105.333 16.9142C104.897 16.9142 104.577 17.0471 104.372 17.3127C104.175 17.5716 104.076 17.9053 104.076 18.3141V19.0293H106.774V21.3692Z" fill="#222222"/>
<path d="M118.953 24.7206C118.953 25.6742 118.824 26.5189 118.565 27.2546C118.313 27.9903 117.942 28.6135 117.451 29.1244C116.968 29.6285 116.382 30.01 115.694 30.2688C115.013 30.5277 114.243 30.6571 113.385 30.6571C112.581 30.6571 111.842 30.5277 111.167 30.2688C110.5 30.01 109.917 29.6285 109.42 29.1244C108.93 28.6135 108.548 27.9903 108.276 27.2546C108.01 26.5189 107.877 25.6742 107.877 24.7206C107.877 23.4536 108.102 22.3807 108.552 21.502C109.001 20.6233 109.641 19.9557 110.472 19.4993C111.304 19.0429 112.295 18.8147 113.446 18.8147C114.515 18.8147 115.462 19.0429 116.286 19.4993C117.117 19.9557 117.768 20.6233 118.238 21.502C118.715 22.3807 118.953 23.4536 118.953 24.7206ZM111.055 24.7206C111.055 25.4699 111.137 26.1 111.3 26.6109C111.464 27.1217 111.719 27.5066 112.066 27.7655C112.414 28.0243 112.867 28.1537 113.425 28.1537C113.977 28.1537 114.423 28.0243 114.764 27.7655C115.111 27.5066 115.363 27.1217 115.52 26.6109C115.684 26.1 115.765 25.4699 115.765 24.7206C115.765 23.9645 115.684 23.3378 115.52 22.8405C115.363 22.3364 115.111 21.9584 114.764 21.7063C114.417 21.4543 113.964 21.3283 113.405 21.3283C112.581 21.3283 111.981 21.611 111.607 22.1764C111.239 22.7417 111.055 23.5898 111.055 24.7206Z" fill="#222222"/>
<path d="M127.904 18.8147C128.061 18.8147 128.241 18.8249 128.445 18.8454C128.657 18.859 128.827 18.8794 128.956 18.9067L128.721 21.829C128.619 21.7949 128.473 21.7711 128.282 21.7574C128.098 21.737 127.938 21.7268 127.802 21.7268C127.4 21.7268 127.008 21.7779 126.627 21.88C126.252 21.9822 125.915 22.1491 125.615 22.3807C125.315 22.6055 125.077 22.9052 124.9 23.2799C124.73 23.6477 124.644 24.1007 124.644 24.6388V30.4527H121.528V19.0293H123.888L124.348 20.9502H124.501C124.726 20.562 125.005 20.2077 125.339 19.8876C125.68 19.5606 126.065 19.3018 126.494 19.111C126.93 18.9135 127.4 18.8147 127.904 18.8147Z" fill="#222222"/>
<path d="M135.669 30.6571C134.539 30.6571 133.575 30.4527 132.778 30.044C131.981 29.6285 131.375 28.9882 130.959 28.1231C130.544 27.258 130.336 26.1511 130.336 24.8023C130.336 23.4059 130.571 22.2683 131.041 21.3896C131.518 20.5041 132.175 19.8535 133.013 19.438C133.857 19.0225 134.835 18.8147 135.945 18.8147C136.735 18.8147 137.417 18.8931 137.989 19.0497C138.568 19.1996 139.072 19.3801 139.501 19.5913L138.581 22.0027C138.091 21.8051 137.635 21.645 137.212 21.5224C136.79 21.393 136.368 21.3283 135.945 21.3283C135.4 21.3283 134.947 21.4577 134.586 21.7166C134.225 21.9686 133.956 22.3501 133.779 22.861C133.602 23.3718 133.513 24.0121 133.513 24.7819C133.513 25.538 133.609 26.1647 133.8 26.6619C133.99 27.1592 134.266 27.5305 134.627 27.7757C134.988 28.0141 135.428 28.1333 135.945 28.1333C136.592 28.1333 137.168 28.0482 137.672 27.8779C138.176 27.7008 138.667 27.4555 139.143 27.1422V29.809C138.667 30.1087 138.166 30.3233 137.641 30.4527C137.124 30.589 136.466 30.6571 135.669 30.6571Z" fill="#222222"/>
<path d="M146.51 18.8147C147.566 18.8147 148.476 19.0191 149.239 19.4278C150.001 19.8297 150.591 20.4155 151.006 21.1852C151.422 21.955 151.63 22.895 151.63 24.0053V25.5176H144.263C144.297 26.3963 144.559 27.0877 145.049 27.5918C145.547 28.089 146.235 28.3377 147.113 28.3377C147.842 28.3377 148.51 28.2627 149.116 28.1129C149.722 27.963 150.345 27.7382 150.986 27.4385V29.8499C150.42 30.1292 149.828 30.3335 149.208 30.4629C148.595 30.5924 147.849 30.6571 146.97 30.6571C145.826 30.6571 144.811 30.4459 143.925 30.0236C143.047 29.6013 142.355 28.9575 141.851 28.0924C141.354 27.2273 141.105 26.1374 141.105 24.8228C141.105 23.4876 141.33 22.3773 141.78 21.4918C142.236 20.5994 142.87 19.9319 143.68 19.4891C144.491 19.0395 145.434 18.8147 146.51 18.8147ZM146.531 21.032C145.925 21.032 145.421 21.2261 145.019 21.6144C144.624 22.0027 144.395 22.6123 144.334 23.4434H148.707C148.7 22.9802 148.615 22.568 148.452 22.207C148.295 21.846 148.057 21.5599 147.737 21.3487C147.423 21.1376 147.021 21.032 146.531 21.032Z" fill="#222222"/>
<path d="M0.0102539 4.28527C0.0102539 2.16991 1.7251 0.45506 3.84047 0.45506H17.3834C19.4987 0.45506 21.2136 2.1699 21.2136 4.28527V17.8282C21.2136 19.9435 19.4987 21.6584 17.3834 21.6584H3.84047C1.7251 21.6584 0.0102539 19.9435 0.0102539 17.8282V4.28527Z" fill="#FFD12A"/>
<path d="M22.8623 25.4922C22.8623 24.359 23.781 23.4403 24.9143 23.4403H40.2354C42.3508 23.4403 44.0656 25.1551 44.0656 27.2705V42.5917C44.0656 43.7249 43.147 44.6436 42.0137 44.6436C31.4367 44.6436 22.8623 36.0692 22.8623 25.4922Z" fill="#19D1B0"/>
<path d="M44.0657 11.0567C44.0657 16.9119 39.3192 21.6584 33.464 21.6584H26.2103C24.3613 21.6584 22.8624 20.1595 22.8624 18.3105L22.8624 3.80295C22.8624 1.95396 24.3613 0.455055 26.2103 0.455055L33.464 0.455056C39.3192 0.455056 44.0657 5.20159 44.0657 11.0567Z" fill="#AB27D2"/>
<path d="M0.0102658 27.2705C0.0102658 25.1551 1.72511 23.4403 3.84048 23.4403H17.3834C19.4987 23.4403 21.2136 25.1551 21.2136 27.2705V40.8134C21.2136 42.9288 19.4988 44.6436 17.3834 44.6436H3.84048C1.72511 44.6436 0.0102658 42.9288 0.0102658 40.8134V27.2705Z" fill="#5A1A8A"/>
</svg>
