<svg width="512" height="512" viewBox="0 0 512 512" fill="none" xmlns="http://www.w3.org/2000/svg">
<path d="M256 512C397.385 512 512 397.385 512 256C512 114.615 397.385 0 256 0C114.615 0 0.00012207 114.615 0.00012207 256C0.00012207 397.385 114.615 512 256 512Z" fill="#009B3A"/>
<path d="M13.8712 256L256 410.612L498.129 256L256 101.388L13.8712 256Z" fill="#FEDF00"/>
<path d="M256 358.102C312.39 358.102 358.103 312.39 358.103 256C358.103 199.61 312.39 153.897 256 153.897C199.61 153.897 153.898 199.61 153.898 256C153.898 312.39 199.61 358.102 256 358.102Z" fill="#002776"/>
<path d="M256 358.102C312.39 358.102 358.103 312.39 358.103 256C358.103 199.61 312.39 153.897 256 153.897C199.61 153.897 153.898 199.61 153.898 256C153.898 312.39 199.61 358.102 256 358.102Z" fill="#002776"/>
<path d="M157.284 229.826C170.382 227.551 183.735 226.386 197.208 226.386C255.074 226.386 310.724 247.877 353.488 286.439C355.119 281.211 356.341 275.802 357.116 270.25C312.558 232.649 255.957 211.8 197.208 211.8C185.637 211.8 174.149 212.609 162.82 214.195C160.57 219.204 158.711 224.427 157.284 229.826Z" fill="white"/>
</svg>
